# xmcd
# Copyright (C) 1995-1998 Ti Kan
#
# Track frame offsets:
#       150
#       11888
#       25019
#       37680
#       46460
#       57477
#       71100
#       81075
#       94843
#       107482
#       122678
#       138779
#       149206
#       163466
#       177024
#       188429
#       201979
#       213445
#       224376
#       238406
#
# Disc length: 3387 seconds
#
# Revision: 0
# Processed by: cddbd v1.5.2PL0 Copyright (c) Steve Scherf et al.
# Submitted via: CD-Transfer v1.0
#
DISCID=2a0d3914
DTITLE=Springfield, Dusty - 
DYEAR=1900
DGENRE=
TTITLE0=Only Want To Be With You
TTITLE1=Wishin' And Hopin'
TTITLE2=You Don't Have To Say You Love Me
TTITLE3=Stay Awhile
TTITLE4=Son Of A Preacher Man
TTITLE5=I Just Don't Know What To Do With Myself
TTITLE6=What's It Gonna Be
TTITLE7=All Cried Out
TTITLE8=In The Middle Of Nowhere
TTITLE9=All I See Is You
TTITLE10=Look Of Love, The
TTITLE11=Little By Little
TTITLE12=I Close My Eyes And Count To Ten
TTITLE13=Some Of Your Lovin'
TTITLE14=I'll Try Anything
TTITLE15=Losing You
TTITLE16=Guess Who
TTITLE17=A Brand New Me
TTITLE18=Give Me Time
TTITLE19=Goin' Back
EXTD=
EXTT0=
EXTT1=
EXTT2=
EXTT3=
EXTT4=
EXTT5=
EXTT6=
EXTT7=
EXTT8=
EXTT9=
EXTT10=
EXTT11=
EXTT12=
EXTT13=
EXTT14=
EXTT15=
EXTT16=
EXTT17=
EXTT18=
EXTT19=
PLAYORDER=
